grf
version=1
nRows=11
nColumns=37
inDegrees=no
endheader
time	ground_force_1_vx	ground_force_1_vy	ground_force_1_vz	ground_force_1_px	ground_force_1_py	ground_force_1_pz	ground_moment_1_mx	ground_moment_1_my	ground_moment_1_mz	ground_force_2_vx	ground_force_2_vy	ground_force_2_vz	ground_force_2_px	ground_force_2_py	ground_force_2_pz	ground_moment_2_mx	ground_moment_2_my	ground_moment_2_mz	ground_force_3_vx	ground_force_3_vy	ground_force_3_vz	ground_force_3_px	ground_force_3_py	ground_force_3_pz	ground_moment_3_mx	ground_moment_3_my	ground_moment_3_mz	ground_force_4_vx	ground_force_4_vy	ground_force_4_vz	ground_force_4_px	ground_force_4_py	ground_force_4_pz	ground_moment_4_mx	ground_moment_4_my	ground_moment_4_mz
      0.00000000	      0.00000000	     -0.00000000	      0.00000000	      0.00000000	      0.00000000	      0.00000000	      0.00000000	      0.00000000	      0.00000000	     -5.19661379	     27.84165192	   -462.31256104	   -337.05721003	  -1032.85822775	      0.00000000	      0.00000000	      0.00000000	   3496.24208855	      6.93921085	    -27.76732887	   -532.32049561	   -365.51018518	   -789.58001748	      0.00000000	      0.00000000	     -0.00000000	  -3577.68553905	      0.00000000	     -0.00000000	      0.00000000	      0.00000000	      0.00000000	      0.00000000	      0.00000000	      0.00000000	      0.00000000
      0.01000000	      0.00000000	     -0.00000000	      0.00000000	      0.00000000	      0.00000000	      0.00000000	      0.00000000	      0.00000000	      0.00000000	     -4.68424892	     27.96570778	   -465.49114990	   -336.60863186	  -1033.05548182	      0.00000000	      0.00000000	      0.00000000	   3710.67720146	      6.58461379	    -27.40825520	   -530.90203857	   -365.35153257	   -789.84170357	      0.00000000	      0.00000000	     -0.00000000	  -3431.20204872	      0.00000000	     -0.00000000	      0.00000000	      0.00000000	      0.00000000	      0.00000000	      0.00000000	      0.00000000	      0.00000000
      0.02000000	      0.00000000	     -0.00000000	      0.00000000	      0.00000000	      0.00000000	      0.00000000	      0.00000000	      0.00000000	      0.00000000	     -5.06208897	     27.86226654	   -466.02575684	   -338.17627393	  -1032.62120532	      0.00000000	      0.00000000	      0.00000000	   3503.77403698	      6.40744926	    -27.13494357	   -529.17919922	   -365.58364377	   -789.70123043	      0.00000000	      0.00000000	     -0.00000000	  -3495.37960976	      0.00000000	     -0.00000000	      0.00000000	      0.00000000	      0.00000000	      0.00000000	      0.00000000	      0.00000000	      0.00000000
      0.03000000	      0.00000000	     -0.00000000	      0.00000000	      0.00000000	      0.00000000	      0.00000000	      0.00000000	      0.00000000	      0.00000000	     -5.30629158	     27.90127945	   -467.88543701	   -338.72768772	  -1032.11404642	      0.00000000	      0.00000000	      0.00000000	   3426.16478659	      5.78673171	    -27.38666966	   -526.38647461	   -365.57297401	   -790.80199271	      0.00000000	      0.00000000	     -0.00000000	  -3266.50710874	      0.00000000	     -0.00000000	      0.00000000	      0.00000000	      0.00000000	      0.00000000	      0.00000000	      0.00000000	      0.00000000
      0.04000000	      0.00000000	     -0.00000000	      0.00000000	      0.00000000	      0.00000000	      0.00000000	      0.00000000	      0.00000000	      0.00000000	     -5.08499908	     28.25433731	   -469.89685059	   -338.51117383	  -1033.05615272	      0.00000000	      0.00000000	      0.00000000	   3554.01464645	      5.60191539	    -26.97191478	   -524.07653809	   -366.18222387	   -790.71567365	      0.00000000	      0.00000000	     -0.00000000	  -3315.34917896	      0.00000000	     -0.00000000	      0.00000000	      0.00000000	      0.00000000	      0.00000000	      0.00000000	      0.00000000	      0.00000000
      0.05000000	      0.00000000	     -0.00000000	      0.00000000	      0.00000000	      0.00000000	      0.00000000	      0.00000000	      0.00000000	      0.00000000	     -4.89194155	     28.14153099	   -469.22439575	   -339.03164408	  -1032.51795127	      0.00000000	      0.00000000	      0.00000000	   3427.38657906	      5.24670320	    -26.66043709	   -522.11480713	   -365.56817893	   -790.26109575	      0.00000000	      0.00000000	     -0.00000000	  -3251.03650182	      0.00000000	     -0.00000000	      0.00000000	      0.00000000	      0.00000000	      0.00000000	      0.00000000	      0.00000000	      0.00000000
      0.06000000	      0.00000000	     -0.00000000	      0.00000000	      0.00000000	      0.00000000	      0.00000000	      0.00000000	      0.00000000	      0.00000000	     -4.64761877	     28.57165527	   -471.29739380	   -339.85844997	  -1032.95844445	      0.00000000	      0.00000000	      0.00000000	   3529.27143822	      5.37765751	    -26.17676973	   -519.80285645	   -365.58035396	   -790.43798615	      0.00000000	      0.00000000	     -0.00000000	  -3215.67893703	      0.00000000	     -0.00000000	      0.00000000	      0.00000000	      0.00000000	      0.00000000	      0.00000000	      0.00000000	      0.00000000
      0.07000000	      0.00000000	     -0.00000000	      0.00000000	      0.00000000	      0.00000000	      0.00000000	      0.00000000	      0.00000000	      0.00000000	     -4.68737555	     28.38357735	   -472.04263306	   -340.34342053	  -1032.23615440	      0.00000000	      0.00000000	      0.00000000	   3418.10540644	      5.20036470	    -26.06684158	   -517.26336670	   -365.94970604	   -790.86268160	      0.00000000	      0.00000000	     -0.00000000	  -3131.45121221	      0.00000000	     -0.00000000	      0.00000000	      0.00000000	      0.00000000	      0.00000000	      0.00000000	      0.00000000	      0.00000000
      0.08000000	      0.00000000	     -0.00000000	      0.00000000	      0.00000000	      0.00000000	      0.00000000	      0.00000000	      0.00000000	      0.00000000	     -4.50074816	     27.83315659	   -473.74240112	   -341.23479316	  -1032.74783064	      0.00000000	      0.00000000	      0.00000000	   3473.97881652	      5.03466236	    -26.02161451	   -516.61279297	   -366.20601578	   -789.80417616	      0.00000000	      0.00000000	     -0.00000000	  -3069.46827653	      0.00000000	     -0.00000000	      0.00000000	      0.00000000	      0.00000000	      0.00000000	      0.00000000	      0.00000000	      0.00000000
      0.09000000	      0.00000000	     -0.00000000	      0.00000000	      0.00000000	      0.00000000	      0.00000000	      0.00000000	      0.00000000	      0.00000000	     -4.54973602	     28.24682045	   -474.83981323	   -341.75054769	  -1032.14115375	      0.00000000	      0.00000000	      0.00000000	   3445.25118618	      4.96780175	    -25.23802419	   -514.47412109	   -366.48947260	   -790.71234552	      0.00000000	      0.00000000	     -0.00000000	  -2947.09409285	      0.00000000	     -0.00000000	      0.00000000	      0.00000000	      0.00000000	      0.00000000	      0.00000000	      0.00000000	      0.00000000
      0.10000000	      0.00000000	     -0.00000000	      0.00000000	      0.00000000	      0.00000000	      0.00000000	      0.00000000	      0.00000000	      0.00000000	     -4.26420736	     27.97984886	   -477.42843628	   -342.47527945	  -1032.85061685	      0.00000000	      0.00000000	      0.00000000	   3473.38094164	      5.14522333	    -25.15012786	   -513.60205078	   -367.13620519	   -791.31178841	      0.00000000	      0.00000000	     -0.00000000	  -2968.85790252	      0.00000000	     -0.00000000	      0.00000000	      0.00000000	      0.00000000	      0.00000000	      0.00000000	      0.00000000	      0.00000000
